<svg width="957" height="1080" viewBox="0 0 957 1080" fill="none" xmlns="http://www.w3.org/2000/svg">
<rect width="957" height="1080" fill="white"/>
<rect x="127" y="387" width="241" height="322" fill="#D9D9D9"/>
<rect x="544" y="387" width="241" height="322" fill="#D9D9D9"/>
<rect x="127" y="785" width="241" height="112" fill="#D9D9D9"/>
<rect x="544" y="221" width="241" height="112" fill="#D9D9D9"/>
<path d="M157.813 559V524.091H178.881V527.841H162.04V539.636H177.79V543.386H162.04V555.25H179.154V559H157.813ZM189.978 543.25V559H185.955V532.818H189.842V536.909H190.183C190.796 535.58 191.728 534.511 192.978 533.705C194.228 532.886 195.842 532.477 197.819 532.477C199.592 532.477 201.143 532.841 202.472 533.568C203.802 534.284 204.836 535.375 205.575 536.841C206.313 538.295 206.683 540.136 206.683 542.364V559H202.66V542.636C202.66 540.58 202.126 538.977 201.058 537.83C199.989 536.67 198.523 536.091 196.66 536.091C195.376 536.091 194.228 536.369 193.217 536.926C192.217 537.483 191.427 538.295 190.847 539.364C190.268 540.432 189.978 541.727 189.978 543.25ZM224.67 559.545C222.215 559.545 220.102 558.966 218.329 557.807C216.556 556.648 215.192 555.051 214.238 553.017C213.283 550.983 212.806 548.659 212.806 546.045C212.806 543.386 213.295 541.04 214.272 539.006C215.261 536.96 216.636 535.364 218.397 534.216C220.17 533.057 222.238 532.477 224.602 532.477C226.442 532.477 228.102 532.818 229.579 533.5C231.056 534.182 232.266 535.136 233.21 536.364C234.153 537.591 234.738 539.023 234.965 540.659H230.942C230.636 539.466 229.954 538.409 228.897 537.489C227.852 536.557 226.442 536.091 224.67 536.091C223.102 536.091 221.727 536.5 220.545 537.318C219.374 538.125 218.46 539.267 217.8 540.744C217.153 542.21 216.829 543.932 216.829 545.909C216.829 547.932 217.147 549.693 217.783 551.193C218.431 552.693 219.34 553.858 220.511 554.688C221.692 555.517 223.079 555.932 224.67 555.932C225.715 555.932 226.664 555.75 227.516 555.386C228.369 555.023 229.09 554.5 229.681 553.818C230.272 553.136 230.692 552.318 230.942 551.364H234.965C234.738 552.909 234.175 554.301 233.278 555.54C232.391 556.767 231.215 557.744 229.749 558.472C228.295 559.188 226.602 559.545 224.67 559.545ZM251.482 559.545C249.119 559.545 247.045 558.983 245.261 557.858C243.488 556.733 242.102 555.159 241.102 553.136C240.113 551.114 239.619 548.75 239.619 546.045C239.619 543.318 240.113 540.937 241.102 538.903C242.102 536.869 243.488 535.29 245.261 534.165C247.045 533.04 249.119 532.477 251.482 532.477C253.846 532.477 255.914 533.04 257.687 534.165C259.471 535.29 260.857 536.869 261.846 538.903C262.846 540.937 263.346 543.318 263.346 546.045C263.346 548.75 262.846 551.114 261.846 553.136C260.857 555.159 259.471 556.733 257.687 557.858C255.914 558.983 253.846 559.545 251.482 559.545ZM251.482 555.932C253.278 555.932 254.755 555.472 255.914 554.551C257.073 553.631 257.931 552.42 258.488 550.92C259.045 549.42 259.323 547.795 259.323 546.045C259.323 544.295 259.045 542.665 258.488 541.153C257.931 539.642 257.073 538.42 255.914 537.489C254.755 536.557 253.278 536.091 251.482 536.091C249.687 536.091 248.21 536.557 247.05 537.489C245.891 538.42 245.033 539.642 244.477 541.153C243.92 542.665 243.641 544.295 243.641 546.045C243.641 547.795 243.92 549.42 244.477 550.92C245.033 552.42 245.891 553.631 247.05 554.551C248.21 555.472 249.687 555.932 251.482 555.932ZM279.373 559.545C277.191 559.545 275.265 558.994 273.594 557.892C271.924 556.778 270.617 555.21 269.674 553.188C268.731 551.153 268.259 548.75 268.259 545.977C268.259 543.227 268.731 540.841 269.674 538.818C270.617 536.795 271.93 535.233 273.612 534.131C275.293 533.028 277.237 532.477 279.441 532.477C281.146 532.477 282.492 532.761 283.481 533.33C284.481 533.886 285.242 534.523 285.765 535.239C286.299 535.943 286.714 536.523 287.009 536.977H287.35V524.091H291.373V559H287.487V554.977H287.009C286.714 555.455 286.293 556.057 285.748 556.784C285.202 557.5 284.424 558.142 283.413 558.71C282.401 559.267 281.055 559.545 279.373 559.545ZM279.918 555.932C281.532 555.932 282.896 555.511 284.009 554.67C285.123 553.818 285.969 552.642 286.549 551.142C287.129 549.631 287.418 547.886 287.418 545.909C287.418 543.955 287.134 542.244 286.566 540.778C285.998 539.301 285.157 538.153 284.043 537.335C282.93 536.506 281.555 536.091 279.918 536.091C278.214 536.091 276.793 536.528 275.657 537.403C274.532 538.267 273.685 539.443 273.117 540.932C272.56 542.409 272.282 544.068 272.282 545.909C272.282 547.773 272.566 549.466 273.134 550.989C273.714 552.5 274.566 553.705 275.691 554.602C276.827 555.489 278.237 555.932 279.918 555.932ZM310.276 559.545C307.754 559.545 305.577 558.989 303.748 557.875C301.93 556.75 300.526 555.182 299.538 553.17C298.56 551.148 298.072 548.795 298.072 546.114C298.072 543.432 298.56 541.068 299.538 539.023C300.526 536.966 301.901 535.364 303.663 534.216C305.435 533.057 307.504 532.477 309.867 532.477C311.231 532.477 312.577 532.705 313.907 533.159C315.237 533.614 316.447 534.352 317.538 535.375C318.629 536.386 319.498 537.727 320.146 539.398C320.793 541.068 321.117 543.125 321.117 545.568V547.273H300.935V543.795H317.026C317.026 542.318 316.731 541 316.14 539.841C315.56 538.682 314.731 537.767 313.651 537.097C312.583 536.426 311.322 536.091 309.867 536.091C308.265 536.091 306.879 536.489 305.708 537.284C304.549 538.068 303.657 539.091 303.032 540.352C302.407 541.614 302.094 542.966 302.094 544.409V546.727C302.094 548.705 302.435 550.381 303.117 551.756C303.81 553.119 304.771 554.159 305.998 554.875C307.225 555.58 308.651 555.932 310.276 555.932C311.333 555.932 312.288 555.784 313.14 555.489C314.004 555.182 314.748 554.727 315.373 554.125C315.998 553.511 316.481 552.75 316.822 551.841L320.708 552.932C320.299 554.25 319.612 555.409 318.646 556.409C317.68 557.398 316.487 558.17 315.066 558.727C313.646 559.273 312.049 559.545 310.276 559.545ZM327.237 559V532.818H331.123V536.773H331.396C331.873 535.477 332.737 534.426 333.987 533.619C335.237 532.812 336.646 532.409 338.214 532.409C338.509 532.409 338.879 532.415 339.322 532.426C339.765 532.437 340.1 532.455 340.327 532.477V536.568C340.191 536.534 339.879 536.483 339.39 536.415C338.913 536.335 338.407 536.295 337.873 536.295C336.6 536.295 335.464 536.562 334.464 537.097C333.475 537.619 332.691 538.347 332.112 539.278C331.543 540.199 331.259 541.25 331.259 542.432V559H327.237Z" fill="black"/>
<path d="M582.75 559H571.977V524.091H583.227C586.614 524.091 589.511 524.79 591.92 526.188C594.33 527.574 596.176 529.568 597.46 532.17C598.744 534.761 599.386 537.864 599.386 541.477C599.386 545.114 598.739 548.244 597.443 550.869C596.148 553.483 594.261 555.494 591.784 556.903C589.307 558.301 586.295 559 582.75 559ZM576.205 555.25H582.477C585.364 555.25 587.756 554.693 589.653 553.58C591.551 552.466 592.966 550.881 593.898 548.824C594.83 546.767 595.295 544.318 595.295 541.477C595.295 538.659 594.835 536.233 593.915 534.199C592.994 532.153 591.619 530.585 589.79 529.494C587.96 528.392 585.682 527.841 582.955 527.841H576.205V555.25ZM616.909 559.545C614.386 559.545 612.21 558.989 610.381 557.875C608.562 556.75 607.159 555.182 606.17 553.17C605.193 551.148 604.705 548.795 604.705 546.114C604.705 543.432 605.193 541.068 606.17 539.023C607.159 536.966 608.534 535.364 610.295 534.216C612.068 533.057 614.136 532.477 616.5 532.477C617.864 532.477 619.21 532.705 620.54 533.159C621.869 533.614 623.08 534.352 624.17 535.375C625.261 536.386 626.131 537.727 626.778 539.398C627.426 541.068 627.75 543.125 627.75 545.568V547.273H607.568V543.795H623.659C623.659 542.318 623.364 541 622.773 539.841C622.193 538.682 621.364 537.767 620.284 537.097C619.216 536.426 617.955 536.091 616.5 536.091C614.898 536.091 613.511 536.489 612.341 537.284C611.182 538.068 610.29 539.091 609.665 540.352C609.04 541.614 608.727 542.966 608.727 544.409V546.727C608.727 548.705 609.068 550.381 609.75 551.756C610.443 553.119 611.403 554.159 612.631 554.875C613.858 555.58 615.284 555.932 616.909 555.932C617.966 555.932 618.92 555.784 619.773 555.489C620.636 555.182 621.381 554.727 622.006 554.125C622.631 553.511 623.114 552.75 623.455 551.841L627.341 552.932C626.932 554.25 626.244 555.409 625.278 556.409C624.313 557.398 623.119 558.17 621.699 558.727C620.278 559.273 618.682 559.545 616.909 559.545ZM644.506 559.545C642.051 559.545 639.938 558.966 638.165 557.807C636.392 556.648 635.028 555.051 634.074 553.017C633.119 550.983 632.642 548.659 632.642 546.045C632.642 543.386 633.131 541.04 634.108 539.006C635.097 536.96 636.472 535.364 638.233 534.216C640.006 533.057 642.074 532.477 644.438 532.477C646.278 532.477 647.938 532.818 649.415 533.5C650.892 534.182 652.102 535.136 653.045 536.364C653.989 537.591 654.574 539.023 654.801 540.659H650.778C650.472 539.466 649.79 538.409 648.733 537.489C647.688 536.557 646.278 536.091 644.506 536.091C642.938 536.091 641.563 536.5 640.381 537.318C639.21 538.125 638.295 539.267 637.636 540.744C636.989 542.21 636.665 543.932 636.665 545.909C636.665 547.932 636.983 549.693 637.619 551.193C638.267 552.693 639.176 553.858 640.347 554.688C641.528 555.517 642.915 555.932 644.506 555.932C645.551 555.932 646.5 555.75 647.352 555.386C648.205 555.023 648.926 554.5 649.517 553.818C650.108 553.136 650.528 552.318 650.778 551.364H654.801C654.574 552.909 654.011 554.301 653.114 555.54C652.227 556.767 651.051 557.744 649.585 558.472C648.131 559.188 646.438 559.545 644.506 559.545ZM671.318 559.545C668.955 559.545 666.881 558.983 665.097 557.858C663.324 556.733 661.938 555.159 660.938 553.136C659.949 551.114 659.455 548.75 659.455 546.045C659.455 543.318 659.949 540.937 660.938 538.903C661.938 536.869 663.324 535.29 665.097 534.165C666.881 533.04 668.955 532.477 671.318 532.477C673.682 532.477 675.75 533.04 677.523 534.165C679.307 535.29 680.693 536.869 681.682 538.903C682.682 540.937 683.182 543.318 683.182 546.045C683.182 548.75 682.682 551.114 681.682 553.136C680.693 555.159 679.307 556.733 677.523 557.858C675.75 558.983 673.682 559.545 671.318 559.545ZM671.318 555.932C673.114 555.932 674.591 555.472 675.75 554.551C676.909 553.631 677.767 552.42 678.324 550.92C678.881 549.42 679.159 547.795 679.159 546.045C679.159 544.295 678.881 542.665 678.324 541.153C677.767 539.642 676.909 538.42 675.75 537.489C674.591 536.557 673.114 536.091 671.318 536.091C669.523 536.091 668.045 536.557 666.886 537.489C665.727 538.42 664.869 539.642 664.312 541.153C663.756 542.665 663.477 544.295 663.477 546.045C663.477 547.795 663.756 549.42 664.312 550.92C664.869 552.42 665.727 553.631 666.886 554.551C668.045 555.472 669.523 555.932 671.318 555.932ZM699.209 559.545C697.027 559.545 695.101 558.994 693.43 557.892C691.76 556.778 690.453 555.21 689.51 553.188C688.567 551.153 688.095 548.75 688.095 545.977C688.095 543.227 688.567 540.841 689.51 538.818C690.453 536.795 691.766 535.233 693.447 534.131C695.129 533.028 697.072 532.477 699.277 532.477C700.982 532.477 702.328 532.761 703.317 533.33C704.317 533.886 705.078 534.523 705.601 535.239C706.135 535.943 706.55 536.523 706.845 536.977H707.186V524.091H711.209V559H707.322V554.977H706.845C706.55 555.455 706.129 556.057 705.584 556.784C705.038 557.5 704.26 558.142 703.249 558.71C702.237 559.267 700.891 559.545 699.209 559.545ZM699.754 555.932C701.368 555.932 702.732 555.511 703.845 554.67C704.959 553.818 705.805 552.642 706.385 551.142C706.964 549.631 707.254 547.886 707.254 545.909C707.254 543.955 706.97 542.244 706.402 540.778C705.834 539.301 704.993 538.153 703.879 537.335C702.766 536.506 701.391 536.091 699.754 536.091C698.05 536.091 696.629 536.528 695.493 537.403C694.368 538.267 693.521 539.443 692.953 540.932C692.396 542.409 692.118 544.068 692.118 545.909C692.118 547.773 692.402 549.466 692.97 550.989C693.55 552.5 694.402 553.705 695.527 554.602C696.663 555.489 698.072 555.932 699.754 555.932ZM730.112 559.545C727.589 559.545 725.413 558.989 723.584 557.875C721.766 556.75 720.362 555.182 719.374 553.17C718.396 551.148 717.908 548.795 717.908 546.114C717.908 543.432 718.396 541.068 719.374 539.023C720.362 536.966 721.737 535.364 723.499 534.216C725.271 533.057 727.339 532.477 729.703 532.477C731.067 532.477 732.413 532.705 733.743 533.159C735.072 533.614 736.283 534.352 737.374 535.375C738.464 536.386 739.334 537.727 739.982 539.398C740.629 541.068 740.953 543.125 740.953 545.568V547.273H720.771V543.795H736.862C736.862 542.318 736.567 541 735.976 539.841C735.396 538.682 734.567 537.767 733.487 537.097C732.419 536.426 731.158 536.091 729.703 536.091C728.101 536.091 726.714 536.489 725.544 537.284C724.385 538.068 723.493 539.091 722.868 540.352C722.243 541.614 721.93 542.966 721.93 544.409V546.727C721.93 548.705 722.271 550.381 722.953 551.756C723.646 553.119 724.607 554.159 725.834 554.875C727.061 555.58 728.487 555.932 730.112 555.932C731.169 555.932 732.124 555.784 732.976 555.489C733.839 555.182 734.584 554.727 735.209 554.125C735.834 553.511 736.317 552.75 736.658 551.841L740.544 552.932C740.135 554.25 739.447 555.409 738.482 556.409C737.516 557.398 736.322 558.17 734.902 558.727C733.482 559.273 731.885 559.545 730.112 559.545ZM747.072 559V532.818H750.959V536.773H751.232C751.709 535.477 752.572 534.426 753.822 533.619C755.072 532.812 756.482 532.409 758.05 532.409C758.345 532.409 758.714 532.415 759.158 532.426C759.601 532.437 759.936 532.455 760.163 532.477V536.568C760.027 536.534 759.714 536.483 759.226 536.415C758.749 536.335 758.243 536.295 757.709 536.295C756.436 536.295 755.3 536.562 754.3 537.097C753.311 537.619 752.527 538.347 751.947 539.278C751.379 540.199 751.095 541.25 751.095 542.432V559H747.072Z" fill="black"/>
<path d="M592.831 272C592.518 271.044 592.107 270.187 591.595 269.429C591.093 268.662 590.492 268.009 589.791 267.469C589.1 266.929 588.314 266.517 587.433 266.233C586.553 265.949 585.587 265.807 584.536 265.807C582.812 265.807 581.245 266.252 579.834 267.142C578.423 268.032 577.301 269.344 576.467 271.077C575.634 272.81 575.217 274.936 575.217 277.455C575.217 279.973 575.639 282.099 576.482 283.832C577.324 285.565 578.465 286.877 579.905 287.767C581.344 288.657 582.964 289.102 584.763 289.102C586.429 289.102 587.897 288.747 589.166 288.037C590.445 287.317 591.439 286.304 592.149 284.997C592.869 283.681 593.229 282.133 593.229 280.352L594.308 280.58H585.558V277.455H596.638V280.58C596.638 282.975 596.126 285.059 595.104 286.83C594.09 288.6 592.689 289.973 590.899 290.949C589.119 291.915 587.073 292.398 584.763 292.398C582.187 292.398 579.924 291.792 577.973 290.58C576.032 289.367 574.517 287.644 573.428 285.409C572.348 283.174 571.808 280.523 571.808 277.455C571.808 275.153 572.116 273.084 572.732 271.247C573.357 269.401 574.237 267.829 575.374 266.531C576.51 265.234 577.855 264.24 579.408 263.548C580.961 262.857 582.67 262.511 584.536 262.511C586.07 262.511 587.5 262.743 588.825 263.207C590.161 263.662 591.349 264.311 592.391 265.153C593.442 265.987 594.318 266.986 595.018 268.151C595.719 269.306 596.202 270.589 596.467 272H592.831ZM611.364 292.455C609.262 292.455 607.449 291.991 605.924 291.062C604.409 290.125 603.239 288.818 602.415 287.142C601.601 285.456 601.194 283.496 601.194 281.261C601.194 279.027 601.601 277.057 602.415 275.352C603.239 273.638 604.385 272.303 605.853 271.347C607.33 270.381 609.054 269.898 611.023 269.898C612.16 269.898 613.282 270.087 614.39 270.466C615.498 270.845 616.506 271.46 617.415 272.312C618.325 273.155 619.049 274.273 619.589 275.665C620.129 277.057 620.398 278.771 620.398 280.807V282.227H603.58V279.33H616.989C616.989 278.098 616.743 277 616.251 276.034C615.768 275.068 615.076 274.306 614.177 273.747C613.287 273.188 612.236 272.909 611.023 272.909C609.688 272.909 608.533 273.241 607.558 273.903C606.592 274.557 605.848 275.409 605.327 276.46C604.807 277.511 604.546 278.638 604.546 279.841V281.773C604.546 283.42 604.83 284.817 605.398 285.963C605.976 287.099 606.776 287.966 607.799 288.562C608.822 289.15 610.01 289.443 611.364 289.443C612.245 289.443 613.04 289.32 613.751 289.074C614.47 288.818 615.091 288.439 615.612 287.938C616.132 287.426 616.535 286.792 616.819 286.034L620.058 286.943C619.717 288.042 619.144 289.008 618.339 289.841C617.534 290.665 616.54 291.309 615.356 291.773C614.172 292.227 612.842 292.455 611.364 292.455ZM628.85 278.875V292H625.498V270.182H628.737V273.591H629.021C629.532 272.483 630.308 271.593 631.35 270.92C632.392 270.239 633.737 269.898 635.384 269.898C636.862 269.898 638.154 270.201 639.262 270.807C640.37 271.403 641.232 272.312 641.847 273.534C642.463 274.746 642.771 276.28 642.771 278.136V292H639.418V278.364C639.418 276.65 638.973 275.314 638.083 274.358C637.193 273.392 635.971 272.909 634.418 272.909C633.348 272.909 632.392 273.141 631.549 273.605C630.716 274.069 630.058 274.746 629.575 275.636C629.092 276.527 628.85 277.606 628.85 278.875ZM658.044 292.455C655.942 292.455 654.128 291.991 652.604 291.062C651.089 290.125 649.919 288.818 649.095 287.142C648.281 285.456 647.874 283.496 647.874 281.261C647.874 279.027 648.281 277.057 649.095 275.352C649.919 273.638 651.065 272.303 652.533 271.347C654.01 270.381 655.733 269.898 657.703 269.898C658.839 269.898 659.962 270.087 661.07 270.466C662.178 270.845 663.186 271.46 664.095 272.312C665.004 273.155 665.729 274.273 666.268 275.665C666.808 277.057 667.078 278.771 667.078 280.807V282.227H650.26V279.33H663.669C663.669 278.098 663.423 277 662.93 276.034C662.447 275.068 661.756 274.306 660.857 273.747C659.966 273.188 658.915 272.909 657.703 272.909C656.368 272.909 655.213 273.241 654.237 273.903C653.271 274.557 652.528 275.409 652.007 276.46C651.486 277.511 651.226 278.638 651.226 279.841V281.773C651.226 283.42 651.51 284.817 652.078 285.963C652.656 287.099 653.456 287.966 654.479 288.562C655.501 289.15 656.69 289.443 658.044 289.443C658.925 289.443 659.72 289.32 660.43 289.074C661.15 288.818 661.77 288.439 662.291 287.938C662.812 287.426 663.214 286.792 663.499 286.034L666.737 286.943C666.396 288.042 665.823 289.008 665.018 289.841C664.214 290.665 663.219 291.309 662.036 291.773C660.852 292.227 659.521 292.455 658.044 292.455ZM672.178 292V270.182H675.416V273.477H675.643C676.041 272.398 676.761 271.522 677.803 270.849C678.844 270.177 680.018 269.841 681.325 269.841C681.571 269.841 681.879 269.846 682.249 269.855C682.618 269.865 682.897 269.879 683.087 269.898V273.307C682.973 273.278 682.713 273.236 682.305 273.179C681.908 273.113 681.486 273.08 681.041 273.08C679.981 273.08 679.034 273.302 678.2 273.747C677.376 274.183 676.723 274.789 676.24 275.565C675.767 276.332 675.53 277.208 675.53 278.193V292H672.178ZM693.481 292.511C692.098 292.511 690.844 292.251 689.717 291.73C688.59 291.2 687.695 290.438 687.032 289.443C686.369 288.439 686.038 287.227 686.038 285.807C686.038 284.557 686.284 283.544 686.776 282.767C687.269 281.981 687.927 281.366 688.751 280.92C689.575 280.475 690.484 280.144 691.478 279.926C692.482 279.699 693.49 279.519 694.504 279.386C695.829 279.216 696.904 279.088 697.728 279.003C698.561 278.908 699.167 278.752 699.546 278.534C699.934 278.316 700.129 277.937 700.129 277.398V277.284C700.129 275.883 699.745 274.794 698.978 274.017C698.22 273.241 697.07 272.852 695.526 272.852C693.926 272.852 692.671 273.203 691.762 273.903C690.853 274.604 690.214 275.352 689.844 276.148L686.663 275.011C687.231 273.686 687.988 272.653 688.935 271.915C689.892 271.167 690.933 270.646 692.06 270.352C693.197 270.049 694.314 269.898 695.413 269.898C696.113 269.898 696.918 269.983 697.827 270.153C698.746 270.314 699.631 270.651 700.484 271.162C701.345 271.673 702.06 272.445 702.629 273.477C703.197 274.509 703.481 275.892 703.481 277.625V292H700.129V289.045H699.958C699.731 289.519 699.352 290.026 698.822 290.565C698.291 291.105 697.586 291.564 696.705 291.943C695.825 292.322 694.75 292.511 693.481 292.511ZM693.992 289.5C695.318 289.5 696.435 289.24 697.344 288.719C698.263 288.198 698.954 287.526 699.418 286.702C699.892 285.878 700.129 285.011 700.129 284.102V281.034C699.987 281.205 699.674 281.361 699.191 281.503C698.718 281.635 698.168 281.754 697.543 281.858C696.928 281.953 696.326 282.038 695.739 282.114C695.162 282.18 694.693 282.237 694.333 282.284C693.462 282.398 692.647 282.582 691.89 282.838C691.142 283.084 690.536 283.458 690.072 283.96C689.617 284.453 689.39 285.125 689.39 285.977C689.39 287.142 689.821 288.023 690.683 288.619C691.554 289.206 692.657 289.5 693.992 289.5ZM719.088 270.182V273.023H707.781V270.182H719.088ZM711.077 264.955H714.429V285.75C714.429 286.697 714.566 287.407 714.841 287.881C715.125 288.345 715.485 288.657 715.92 288.818C716.366 288.97 716.834 289.045 717.327 289.045C717.696 289.045 717.999 289.027 718.236 288.989C718.473 288.941 718.662 288.903 718.804 288.875L719.486 291.886C719.259 291.972 718.941 292.057 718.534 292.142C718.127 292.237 717.611 292.284 716.986 292.284C716.039 292.284 715.111 292.08 714.202 291.673C713.302 291.266 712.554 290.646 711.957 289.812C711.37 288.979 711.077 287.928 711.077 286.659V264.955ZM732.76 292.455C730.79 292.455 729.062 291.986 727.575 291.048C726.098 290.111 724.943 288.799 724.109 287.114C723.286 285.428 722.874 283.458 722.874 281.205C722.874 278.932 723.286 276.948 724.109 275.253C724.943 273.558 726.098 272.241 727.575 271.304C729.062 270.366 730.79 269.898 732.76 269.898C734.73 269.898 736.453 270.366 737.93 271.304C739.417 272.241 740.572 273.558 741.396 275.253C742.23 276.948 742.646 278.932 742.646 281.205C742.646 283.458 742.23 285.428 741.396 287.114C740.572 288.799 739.417 290.111 737.93 291.048C736.453 291.986 734.73 292.455 732.76 292.455ZM732.76 289.443C734.256 289.443 735.487 289.06 736.453 288.293C737.419 287.526 738.134 286.517 738.598 285.267C739.062 284.017 739.294 282.663 739.294 281.205C739.294 279.746 739.062 278.387 738.598 277.128C738.134 275.868 737.419 274.85 736.453 274.074C735.487 273.297 734.256 272.909 732.76 272.909C731.264 272.909 730.033 273.297 729.067 274.074C728.101 274.85 727.386 275.868 726.922 277.128C726.458 278.387 726.226 279.746 726.226 281.205C726.226 282.663 726.458 284.017 726.922 285.267C727.386 286.517 728.101 287.526 729.067 288.293C730.033 289.06 731.264 289.443 732.76 289.443ZM747.763 292V270.182H751.002V273.477H751.229C751.627 272.398 752.347 271.522 753.388 270.849C754.43 270.177 755.604 269.841 756.911 269.841C757.157 269.841 757.465 269.846 757.835 269.855C758.204 269.865 758.483 269.879 758.673 269.898V273.307C758.559 273.278 758.299 273.236 757.891 273.179C757.494 273.113 757.072 273.08 756.627 273.08C755.567 273.08 754.62 273.302 753.786 273.747C752.962 274.183 752.309 274.789 751.826 275.565C751.353 276.332 751.116 277.208 751.116 278.193V292H747.763Z" fill="black"/>
<path d="M208.985 815.824V813.636H224.258V815.824H217.854V834H215.388V815.824H208.985ZM231.735 834.318C230.356 834.318 229.147 833.99 228.106 833.334C227.072 832.678 226.263 831.759 225.68 830.58C225.103 829.4 224.815 828.021 224.815 826.443C224.815 824.852 225.103 823.464 225.68 822.277C226.263 821.09 227.072 820.169 228.106 819.513C229.147 818.857 230.356 818.528 231.735 818.528C233.114 818.528 234.32 818.857 235.354 819.513C236.395 820.169 237.204 821.09 237.781 822.277C238.364 823.464 238.656 824.852 238.656 826.443C238.656 828.021 238.364 829.4 237.781 830.58C237.204 831.759 236.395 832.678 235.354 833.334C234.32 833.99 233.114 834.318 231.735 834.318ZM231.735 832.21C232.782 832.21 233.644 831.942 234.32 831.405C234.996 830.868 235.497 830.162 235.822 829.287C236.147 828.412 236.309 827.464 236.309 826.443C236.309 825.422 236.147 824.471 235.822 823.589C235.497 822.708 234.996 821.995 234.32 821.452C233.644 820.908 232.782 820.636 231.735 820.636C230.688 820.636 229.826 820.908 229.15 821.452C228.474 821.995 227.973 822.708 227.648 823.589C227.324 824.471 227.161 825.422 227.161 826.443C227.161 827.464 227.324 828.412 227.648 829.287C227.973 830.162 228.474 830.868 229.15 831.405C229.826 831.942 230.688 832.21 231.735 832.21ZM244.425 828.432L244.385 825.528H244.863L251.544 818.727H254.448L247.328 825.926H247.13L244.425 828.432ZM242.238 834V813.636H244.584V834H242.238ZM251.942 834L245.976 826.443L247.647 824.812L254.925 834H251.942ZM263.243 834.318C261.771 834.318 260.502 833.993 259.434 833.344C258.374 832.688 257.555 831.773 256.978 830.599C256.408 829.42 256.123 828.047 256.123 826.483C256.123 824.919 256.408 823.54 256.978 822.347C257.555 821.147 258.357 820.212 259.385 819.543C260.419 818.866 261.625 818.528 263.004 818.528C263.799 818.528 264.585 818.661 265.36 818.926C266.136 819.191 266.842 819.622 267.478 820.219C268.115 820.809 268.622 821.591 269 822.565C269.377 823.54 269.566 824.74 269.566 826.165V827.159H257.794V825.131H267.18C267.18 824.269 267.008 823.5 266.663 822.824C266.325 822.148 265.841 821.614 265.211 821.223C264.588 820.832 263.852 820.636 263.004 820.636C262.069 820.636 261.261 820.868 260.578 821.332C259.902 821.79 259.381 822.386 259.017 823.122C258.652 823.858 258.47 824.647 258.47 825.489V826.841C258.47 827.994 258.669 828.972 259.066 829.774C259.471 830.57 260.031 831.176 260.747 831.594C261.463 832.005 262.295 832.21 263.243 832.21C263.859 832.21 264.416 832.124 264.913 831.952C265.417 831.773 265.851 831.508 266.216 831.156C266.58 830.798 266.862 830.354 267.061 829.824L269.328 830.46C269.089 831.229 268.688 831.905 268.125 832.489C267.561 833.065 266.865 833.516 266.037 833.841C265.208 834.159 264.277 834.318 263.243 834.318ZM275.483 824.812V834H273.136V818.727H275.403V821.114H275.602C275.96 820.338 276.503 819.715 277.233 819.244C277.962 818.767 278.903 818.528 280.056 818.528C281.091 818.528 281.995 818.741 282.771 819.165C283.547 819.582 284.15 820.219 284.581 821.074C285.011 821.922 285.227 822.996 285.227 824.295V834H282.88V824.455C282.88 823.255 282.569 822.32 281.946 821.651C281.323 820.974 280.467 820.636 279.38 820.636C278.631 820.636 277.962 820.799 277.372 821.124C276.788 821.448 276.328 821.922 275.99 822.545C275.652 823.169 275.483 823.924 275.483 824.812ZM167.839 868V847.636H180.129V849.824H170.305V856.705H179.492V858.892H170.305V865.812H180.288V868H167.839ZM184.255 868V852.727H186.522V855.114H186.721C187.039 854.298 187.553 853.665 188.262 853.214C188.972 852.757 189.823 852.528 190.818 852.528C191.825 852.528 192.664 852.757 193.333 853.214C194.009 853.665 194.536 854.298 194.914 855.114H195.073C195.464 854.325 196.051 853.698 196.833 853.234C197.615 852.764 198.553 852.528 199.647 852.528C201.013 852.528 202.13 852.956 202.998 853.811C203.866 854.66 204.301 855.982 204.301 857.778V868H201.954V857.778C201.954 856.652 201.646 855.846 201.029 855.362C200.413 854.878 199.687 854.636 198.852 854.636C197.778 854.636 196.946 854.961 196.356 855.611C195.766 856.254 195.471 857.069 195.471 858.057V868H193.085V857.54C193.085 856.671 192.803 855.972 192.24 855.442C191.676 854.905 190.95 854.636 190.062 854.636C189.452 854.636 188.882 854.799 188.352 855.124C187.828 855.448 187.404 855.899 187.079 856.476C186.761 857.046 186.602 857.705 186.602 858.455V868H184.255ZM208.909 868V847.636H211.256V855.153H211.455C211.627 854.888 211.866 854.55 212.171 854.139C212.482 853.722 212.926 853.35 213.503 853.026C214.086 852.694 214.875 852.528 215.869 852.528C217.155 852.528 218.289 852.85 219.27 853.493C220.251 854.136 221.017 855.047 221.567 856.227C222.117 857.407 222.392 858.799 222.392 860.403C222.392 862.021 222.117 863.423 221.567 864.609C221.017 865.789 220.254 866.704 219.28 867.354C218.306 867.997 217.182 868.318 215.909 868.318C214.928 868.318 214.143 868.156 213.553 867.831C212.963 867.5 212.509 867.125 212.191 866.707C211.872 866.283 211.627 865.932 211.455 865.653H211.176V868H208.909ZM211.216 860.364C211.216 861.517 211.385 862.535 211.723 863.416C212.061 864.291 212.555 864.977 213.205 865.474C213.854 865.965 214.65 866.21 215.591 866.21C216.572 866.21 217.391 865.952 218.047 865.435C218.71 864.911 219.207 864.208 219.539 863.327C219.877 862.438 220.046 861.451 220.046 860.364C220.046 859.29 219.88 858.322 219.548 857.46C219.224 856.592 218.73 855.906 218.067 855.402C217.411 854.892 216.585 854.636 215.591 854.636C214.637 854.636 213.834 854.878 213.185 855.362C212.535 855.839 212.045 856.509 211.713 857.371C211.382 858.226 211.216 859.223 211.216 860.364ZM232.385 868.318C230.914 868.318 229.644 867.993 228.577 867.344C227.516 866.688 226.698 865.773 226.121 864.599C225.551 863.42 225.266 862.047 225.266 860.483C225.266 858.919 225.551 857.54 226.121 856.347C226.698 855.147 227.5 854.212 228.527 853.543C229.561 852.866 230.768 852.528 232.146 852.528C232.942 852.528 233.727 852.661 234.503 852.926C235.279 853.191 235.985 853.622 236.621 854.219C237.257 854.809 237.764 855.591 238.142 856.565C238.52 857.54 238.709 858.74 238.709 860.165V861.159H226.936V859.131H236.323C236.323 858.269 236.15 857.5 235.806 856.824C235.468 856.148 234.984 855.614 234.354 855.223C233.731 854.832 232.995 854.636 232.146 854.636C231.212 854.636 230.403 854.868 229.72 855.332C229.044 855.79 228.524 856.386 228.159 857.122C227.795 857.858 227.612 858.647 227.612 859.489V860.841C227.612 861.994 227.811 862.972 228.209 863.774C228.613 864.57 229.173 865.176 229.889 865.594C230.605 866.005 231.437 866.21 232.385 866.21C233.002 866.21 233.558 866.124 234.056 865.952C234.559 865.773 234.994 865.508 235.358 865.156C235.723 864.798 236.004 864.354 236.203 863.824L238.47 864.46C238.232 865.229 237.831 865.905 237.267 866.489C236.704 867.065 236.008 867.516 235.179 867.841C234.351 868.159 233.419 868.318 232.385 868.318ZM248.046 868.318C246.773 868.318 245.649 867.997 244.675 867.354C243.7 866.704 242.938 865.789 242.388 864.609C241.838 863.423 241.563 862.021 241.563 860.403C241.563 858.799 241.838 857.407 242.388 856.227C242.938 855.047 243.704 854.136 244.685 853.493C245.666 852.85 246.799 852.528 248.085 852.528C249.08 852.528 249.865 852.694 250.442 853.026C251.025 853.35 251.469 853.722 251.774 854.139C252.086 854.55 252.328 854.888 252.5 855.153H252.699V847.636H255.046V868H252.779V865.653H252.5C252.328 865.932 252.083 866.283 251.764 866.707C251.446 867.125 250.992 867.5 250.402 867.831C249.812 868.156 249.027 868.318 248.046 868.318ZM248.364 866.21C249.305 866.21 250.101 865.965 250.75 865.474C251.4 864.977 251.894 864.291 252.232 863.416C252.57 862.535 252.739 861.517 252.739 860.364C252.739 859.223 252.573 858.226 252.242 857.371C251.91 856.509 251.42 855.839 250.77 855.362C250.12 854.878 249.318 854.636 248.364 854.636C247.369 854.636 246.541 854.892 245.878 855.402C245.222 855.906 244.728 856.592 244.396 857.46C244.072 858.322 243.909 859.29 243.909 860.364C243.909 861.451 244.075 862.438 244.406 863.327C244.744 864.208 245.242 864.911 245.898 865.435C246.561 865.952 247.383 866.21 248.364 866.21ZM265.436 868.318C264.164 868.318 263.04 867.997 262.066 867.354C261.091 866.704 260.329 865.789 259.779 864.609C259.228 863.423 258.953 862.021 258.953 860.403C258.953 858.799 259.228 857.407 259.779 856.227C260.329 855.047 261.094 854.136 262.075 853.493C263.057 852.85 264.19 852.528 265.476 852.528C266.47 852.528 267.256 852.694 267.833 853.026C268.416 853.35 268.86 853.722 269.165 854.139C269.477 854.55 269.718 854.888 269.891 855.153H270.09V847.636H272.436V868H270.169V865.653H269.891C269.718 865.932 269.473 866.283 269.155 866.707C268.837 867.125 268.383 867.5 267.793 867.831C267.203 868.156 266.417 868.318 265.436 868.318ZM265.754 866.21C266.696 866.21 267.491 865.965 268.141 865.474C268.79 864.977 269.284 864.291 269.622 863.416C269.96 862.535 270.129 861.517 270.129 860.364C270.129 859.223 269.964 858.226 269.632 857.371C269.301 856.509 268.81 855.839 268.161 855.362C267.511 854.878 266.709 854.636 265.754 854.636C264.76 854.636 263.932 854.892 263.269 855.402C262.612 855.906 262.119 856.592 261.787 857.46C261.462 858.322 261.3 859.29 261.3 860.364C261.3 861.451 261.466 862.438 261.797 863.327C262.135 864.208 262.632 864.911 263.289 865.435C263.951 865.952 264.773 866.21 265.754 866.21ZM277.06 868V852.727H279.406V868H277.06ZM278.253 850.182C277.796 850.182 277.401 850.026 277.07 849.714C276.745 849.403 276.583 849.028 276.583 848.591C276.583 848.153 276.745 847.779 277.07 847.467C277.401 847.156 277.796 847 278.253 847C278.71 847 279.102 847.156 279.426 847.467C279.758 847.779 279.923 848.153 279.923 848.591C279.923 849.028 279.758 849.403 279.426 849.714C279.102 850.026 278.71 850.182 278.253 850.182ZM286.051 858.812V868H283.704V852.727H285.971V855.114H286.17C286.528 854.338 287.072 853.715 287.801 853.244C288.53 852.767 289.471 852.528 290.625 852.528C291.659 852.528 292.564 852.741 293.339 853.165C294.115 853.582 294.718 854.219 295.149 855.074C295.58 855.922 295.795 856.996 295.795 858.295V868H293.449V858.455C293.449 857.255 293.137 856.32 292.514 855.651C291.891 854.974 291.036 854.636 289.949 854.636C289.2 854.636 288.53 854.799 287.94 855.124C287.357 855.448 286.896 855.922 286.558 856.545C286.22 857.169 286.051 857.924 286.051 858.812ZM306.248 874.045C305.115 874.045 304.14 873.9 303.325 873.608C302.509 873.323 301.83 872.945 301.286 872.474C300.749 872.01 300.322 871.513 300.004 870.983L301.873 869.67C302.085 869.949 302.354 870.267 302.678 870.625C303.003 870.99 303.447 871.304 304.011 871.57C304.581 871.841 305.327 871.977 306.248 871.977C307.481 871.977 308.499 871.679 309.301 871.082C310.103 870.486 310.504 869.551 310.504 868.278V865.176H310.305C310.133 865.455 309.887 865.799 309.569 866.21C309.258 866.615 308.807 866.976 308.217 867.294C307.633 867.606 306.845 867.761 305.85 867.761C304.617 867.761 303.51 867.47 302.529 866.886C301.555 866.303 300.783 865.455 300.213 864.341C299.649 863.227 299.367 861.875 299.367 860.284C299.367 858.72 299.642 857.357 300.193 856.197C300.743 855.031 301.508 854.129 302.49 853.493C303.471 852.85 304.604 852.528 305.89 852.528C306.884 852.528 307.673 852.694 308.257 853.026C308.847 853.35 309.297 853.722 309.609 854.139C309.927 854.55 310.172 854.888 310.345 855.153H310.583V852.727H312.85V868.438C312.85 869.75 312.552 870.817 311.955 871.639C311.365 872.468 310.57 873.074 309.569 873.459C308.575 873.85 307.468 874.045 306.248 874.045ZM306.169 865.653C307.11 865.653 307.905 865.438 308.555 865.007C309.204 864.576 309.698 863.956 310.036 863.148C310.374 862.339 310.544 861.371 310.544 860.244C310.544 859.144 310.378 858.173 310.046 857.331C309.715 856.489 309.224 855.83 308.575 855.352C307.925 854.875 307.123 854.636 306.169 854.636C305.174 854.636 304.346 854.888 303.683 855.392C303.026 855.896 302.533 856.572 302.201 857.42C301.876 858.269 301.714 859.21 301.714 860.244C301.714 861.305 301.88 862.243 302.211 863.058C302.549 863.867 303.046 864.503 303.703 864.967C304.365 865.425 305.187 865.653 306.169 865.653ZM327.964 856.148L325.856 856.744C325.723 856.393 325.528 856.052 325.269 855.72C325.017 855.382 324.673 855.104 324.235 854.885C323.798 854.666 323.238 854.557 322.555 854.557C321.62 854.557 320.841 854.772 320.218 855.203C319.602 855.627 319.294 856.168 319.294 856.824C319.294 857.407 319.506 857.868 319.93 858.206C320.354 858.544 321.017 858.826 321.919 859.051L324.186 859.608C325.551 859.939 326.569 860.446 327.238 861.129C327.908 861.805 328.242 862.677 328.242 863.744C328.242 864.619 327.99 865.402 327.487 866.091C326.99 866.78 326.294 867.324 325.399 867.722C324.504 868.119 323.463 868.318 322.276 868.318C320.719 868.318 319.429 867.98 318.409 867.304C317.388 866.628 316.741 865.64 316.47 864.341L318.697 863.784C318.909 864.606 319.31 865.223 319.9 865.634C320.497 866.045 321.276 866.25 322.237 866.25C323.33 866.25 324.199 866.018 324.842 865.554C325.491 865.083 325.816 864.52 325.816 863.864C325.816 863.333 325.631 862.889 325.259 862.531C324.888 862.167 324.318 861.895 323.549 861.716L321.004 861.119C319.605 860.788 318.578 860.274 317.921 859.578C317.272 858.875 316.947 857.997 316.947 856.943C316.947 856.081 317.189 855.319 317.673 854.656C318.163 853.993 318.829 853.473 319.671 853.095C320.52 852.717 321.481 852.528 322.555 852.528C324.066 852.528 325.253 852.86 326.115 853.523C326.983 854.186 327.599 855.061 327.964 856.148Z" fill="black"/>
<path d="M246 709L237.34 724L254.66 724L246 709ZM247.5 782L247.5 722.5L244.5 722.5L244.5 782L247.5 782Z" fill="black"/>
<path d="M544 548L529 539.34V556.66L544 548ZM364 549.5H530.5V546.5H364V549.5Z" fill="black"/>
<path d="M664 333L655.34 348L672.66 348L664 333ZM665.5 386L665.5 346.5L662.5 346.5L662.5 386L665.5 386Z" fill="black"/>
<path d="M664 168L655.34 183L672.66 183L664 168ZM665.5 221L665.5 181.5L662.5 181.5L662.5 221L665.5 221Z" fill="black"/>
<path d="M583.625 114.295C582.345 114.295 581.221 113.991 580.255 113.381C579.295 112.772 578.544 111.92 578.002 110.824C577.466 109.728 577.199 108.448 577.199 106.983C577.199 105.506 577.466 104.216 578.002 103.114C578.544 102.013 579.295 101.157 580.255 100.548C581.221 99.9382 582.345 99.6335 583.625 99.6335C584.905 99.6335 586.025 99.9382 586.986 100.548C587.952 101.157 588.703 102.013 589.238 103.114C589.78 104.216 590.051 105.506 590.051 106.983C590.051 108.448 589.78 109.728 589.238 110.824C588.703 111.92 587.952 112.772 586.986 113.381C586.025 113.991 584.905 114.295 583.625 114.295ZM583.625 112.338C584.597 112.338 585.398 112.089 586.025 111.59C586.653 111.092 587.118 110.436 587.42 109.624C587.721 108.811 587.872 107.931 587.872 106.983C587.872 106.035 587.721 105.152 587.42 104.333C587.118 103.514 586.653 102.853 586.025 102.348C585.398 101.843 584.597 101.591 583.625 101.591C582.652 101.591 581.852 101.843 581.224 102.348C580.596 102.853 580.132 103.514 579.83 104.333C579.528 105.152 579.378 106.035 579.378 106.983C579.378 107.931 579.528 108.811 579.83 109.624C580.132 110.436 580.596 111.092 581.224 111.59C581.852 112.089 582.652 112.338 583.625 112.338ZM602.315 108.202V99.8182H604.494V114H602.315V111.599H602.167C601.835 112.32 601.317 112.932 600.616 113.437C599.914 113.935 599.028 114.185 597.957 114.185C597.07 114.185 596.282 113.991 595.593 113.603C594.904 113.209 594.362 112.618 593.968 111.83C593.574 111.036 593.377 110.036 593.377 108.83V99.8182H595.556V108.682C595.556 109.716 595.845 110.541 596.424 111.156C597.009 111.772 597.754 112.08 598.658 112.08C599.2 112.08 599.751 111.941 600.311 111.664C600.877 111.387 601.351 110.962 601.733 110.39C602.121 109.817 602.315 109.088 602.315 108.202ZM614.652 99.8182V101.665H607.303V99.8182H614.652ZM609.445 96.4205H611.624V109.938C611.624 110.553 611.713 111.015 611.892 111.322C612.076 111.624 612.31 111.827 612.593 111.932C612.883 112.03 613.187 112.08 613.507 112.08C613.747 112.08 613.944 112.067 614.098 112.043C614.252 112.012 614.375 111.987 614.468 111.969L614.911 113.926C614.763 113.982 614.557 114.037 614.292 114.092C614.027 114.154 613.692 114.185 613.286 114.185C612.67 114.185 612.067 114.052 611.476 113.788C610.891 113.523 610.405 113.12 610.017 112.578C609.636 112.036 609.445 111.353 609.445 110.528V96.4205ZM617.93 119.318V99.8182H620.035V102.071H620.294C620.454 101.825 620.675 101.511 620.958 101.129C621.248 100.741 621.66 100.397 622.195 100.095C622.737 99.7874 623.47 99.6335 624.393 99.6335C625.587 99.6335 626.64 99.9321 627.551 100.529C628.462 101.126 629.173 101.973 629.683 103.068C630.194 104.164 630.45 105.456 630.45 106.946C630.45 108.448 630.194 109.75 629.683 110.852C629.173 111.947 628.465 112.797 627.56 113.4C626.655 113.997 625.612 114.295 624.43 114.295C623.519 114.295 622.789 114.145 622.242 113.843C621.694 113.535 621.272 113.187 620.977 112.8C620.681 112.406 620.454 112.08 620.294 111.821H620.109V119.318H617.93ZM620.072 106.909C620.072 107.98 620.229 108.925 620.543 109.744C620.857 110.556 621.315 111.193 621.919 111.655C622.522 112.11 623.26 112.338 624.134 112.338C625.045 112.338 625.806 112.098 626.415 111.618C627.03 111.132 627.492 110.479 627.8 109.661C628.114 108.836 628.271 107.919 628.271 106.909C628.271 105.912 628.117 105.013 627.809 104.213C627.508 103.407 627.049 102.77 626.433 102.302C625.824 101.828 625.058 101.591 624.134 101.591C623.248 101.591 622.503 101.816 621.9 102.265C621.297 102.708 620.841 103.33 620.534 104.13C620.226 104.924 620.072 105.85 620.072 106.909ZM642.711 108.202V99.8182H644.89V114H642.711V111.599H642.563C642.231 112.32 641.714 112.932 641.012 113.437C640.311 113.935 639.424 114.185 638.353 114.185C637.467 114.185 636.679 113.991 635.99 113.603C635.3 113.209 634.758 112.618 634.365 111.83C633.971 111.036 633.774 110.036 633.774 108.83V99.8182H635.953V108.682C635.953 109.716 636.242 110.541 636.82 111.156C637.405 111.772 638.15 112.08 639.055 112.08C639.597 112.08 640.147 111.941 640.708 111.664C641.274 111.387 641.748 110.962 642.129 110.39C642.517 109.817 642.711 109.088 642.711 108.202ZM655.049 99.8182V101.665H647.699V99.8182H655.049ZM649.841 96.4205H652.02V109.938C652.02 110.553 652.109 111.015 652.288 111.322C652.473 111.624 652.707 111.827 652.99 111.932C653.279 112.03 653.584 112.08 653.904 112.08C654.144 112.08 654.341 112.067 654.495 112.043C654.649 112.012 654.772 111.987 654.864 111.969L655.307 113.926C655.159 113.982 654.953 114.037 654.689 114.092C654.424 114.154 654.088 114.185 653.682 114.185C653.067 114.185 652.463 114.052 651.873 113.788C651.288 113.523 650.801 113.12 650.414 112.578C650.032 112.036 649.841 111.353 649.841 110.528V96.4205ZM675.684 102.994L673.727 103.548C673.604 103.222 673.422 102.905 673.182 102.597C672.948 102.283 672.628 102.025 672.222 101.822C671.816 101.619 671.296 101.517 670.662 101.517C669.794 101.517 669.07 101.717 668.492 102.117C667.919 102.511 667.633 103.013 667.633 103.622C667.633 104.164 667.83 104.592 668.224 104.906C668.618 105.219 669.234 105.481 670.071 105.69L672.176 106.207C673.444 106.515 674.389 106.986 675.01 107.62C675.632 108.248 675.943 109.057 675.943 110.048C675.943 110.861 675.709 111.587 675.241 112.227C674.779 112.867 674.133 113.372 673.302 113.741C672.471 114.111 671.505 114.295 670.403 114.295C668.957 114.295 667.759 113.982 666.811 113.354C665.864 112.726 665.263 111.809 665.011 110.602L667.079 110.085C667.276 110.848 667.649 111.421 668.196 111.803C668.75 112.184 669.474 112.375 670.366 112.375C671.382 112.375 672.188 112.16 672.785 111.729C673.388 111.292 673.69 110.768 673.69 110.159C673.69 109.667 673.518 109.254 673.173 108.922C672.828 108.583 672.299 108.331 671.585 108.165L669.221 107.611C667.922 107.303 666.968 106.826 666.359 106.18C665.756 105.527 665.454 104.712 665.454 103.733C665.454 102.933 665.679 102.225 666.128 101.609C666.584 100.994 667.202 100.511 667.984 100.16C668.772 99.8089 669.664 99.6335 670.662 99.6335C672.065 99.6335 673.167 99.9413 673.967 100.557C674.773 101.172 675.346 101.985 675.684 102.994ZM680.626 119.318C680.257 119.318 679.928 119.287 679.638 119.226C679.349 119.17 679.149 119.115 679.038 119.06L679.592 117.139C680.122 117.275 680.589 117.324 680.996 117.287C681.402 117.25 681.762 117.068 682.076 116.742C682.396 116.422 682.688 115.902 682.953 115.182L683.359 114.074L678.115 99.8182H680.479L684.393 111.119H684.541L688.456 99.8182H690.819L684.8 116.068C684.529 116.801 684.193 117.407 683.793 117.887C683.393 118.373 682.928 118.733 682.399 118.967C681.876 119.201 681.285 119.318 680.626 119.318ZM693.695 114V99.8182H695.801V102.034H695.985C696.281 101.277 696.758 100.689 697.416 100.271C698.075 99.8459 698.866 99.6335 699.789 99.6335C700.725 99.6335 701.503 99.8459 702.125 100.271C702.753 100.689 703.242 101.277 703.593 102.034H703.741C704.104 101.302 704.649 100.72 705.375 100.289C706.102 99.852 706.972 99.6335 707.988 99.6335C709.256 99.6335 710.293 100.031 711.1 100.825C711.906 101.612 712.309 102.84 712.309 104.509V114H710.13V104.509C710.13 103.462 709.844 102.714 709.271 102.265C708.699 101.816 708.025 101.591 707.249 101.591C706.252 101.591 705.48 101.893 704.932 102.496C704.384 103.093 704.11 103.85 704.11 104.767V114H701.894V104.287C701.894 103.481 701.633 102.831 701.11 102.339C700.586 101.84 699.912 101.591 699.088 101.591C698.521 101.591 697.992 101.742 697.499 102.043C697.013 102.345 696.619 102.763 696.318 103.299C696.022 103.828 695.874 104.441 695.874 105.136V114H693.695ZM716.589 114V95.0909H718.768V102.071H718.952C719.112 101.825 719.334 101.511 719.617 101.129C719.906 100.741 720.319 100.397 720.854 100.095C721.396 99.7874 722.128 99.6335 723.052 99.6335C724.246 99.6335 725.298 99.9321 726.209 100.529C727.12 101.126 727.831 101.973 728.342 103.068C728.853 104.164 729.108 105.456 729.108 106.946C729.108 108.448 728.853 109.75 728.342 110.852C727.831 111.947 727.123 112.797 726.219 113.4C725.314 113.997 724.27 114.295 723.089 114.295C722.178 114.295 721.448 114.145 720.9 113.843C720.353 113.535 719.931 113.187 719.635 112.8C719.34 112.406 719.112 112.08 718.952 111.821H718.694V114H716.589ZM718.731 106.909C718.731 107.98 718.888 108.925 719.202 109.744C719.515 110.556 719.974 111.193 720.577 111.655C721.18 112.11 721.919 112.338 722.793 112.338C723.704 112.338 724.464 112.098 725.074 111.618C725.689 111.132 726.151 110.479 726.459 109.661C726.773 108.836 726.93 107.919 726.93 106.909C726.93 105.912 726.776 105.013 726.468 104.213C726.166 103.407 725.708 102.77 725.092 102.302C724.483 101.828 723.716 101.591 722.793 101.591C721.907 101.591 721.162 101.816 720.559 102.265C719.956 102.708 719.5 103.33 719.192 104.13C718.885 104.924 718.731 105.85 718.731 106.909ZM738.203 114.295C736.923 114.295 735.799 113.991 734.833 113.381C733.873 112.772 733.122 111.92 732.58 110.824C732.045 109.728 731.777 108.448 731.777 106.983C731.777 105.506 732.045 104.216 732.58 103.114C733.122 102.013 733.873 101.157 734.833 100.548C735.799 99.9382 736.923 99.6335 738.203 99.6335C739.483 99.6335 740.604 99.9382 741.564 100.548C742.53 101.157 743.281 102.013 743.817 103.114C744.358 104.216 744.629 105.506 744.629 106.983C744.629 108.448 744.358 109.728 743.817 110.824C743.281 111.92 742.53 112.772 741.564 113.381C740.604 113.991 739.483 114.295 738.203 114.295ZM738.203 112.338C739.175 112.338 739.976 112.089 740.604 111.59C741.231 111.092 741.696 110.436 741.998 109.624C742.299 108.811 742.45 107.931 742.45 106.983C742.45 106.035 742.299 105.152 741.998 104.333C741.696 103.514 741.231 102.853 740.604 102.348C739.976 101.843 739.175 101.591 738.203 101.591C737.23 101.591 736.43 101.843 735.802 102.348C735.175 102.853 734.71 103.514 734.408 104.333C734.107 105.152 733.956 106.035 733.956 106.983C733.956 107.931 734.107 108.811 734.408 109.624C734.71 110.436 735.175 111.092 735.802 111.59C736.43 112.089 737.23 112.338 738.203 112.338ZM750.134 95.0909V114H747.955V95.0909H750.134ZM608.61 150.614C607.558 150.614 606.653 150.478 605.896 150.207C605.139 149.943 604.508 149.592 604.003 149.155C603.505 148.724 603.108 148.262 602.812 147.77L604.548 146.551C604.745 146.81 604.994 147.105 605.296 147.438C605.597 147.776 606.01 148.068 606.533 148.315C607.062 148.567 607.755 148.693 608.61 148.693C609.755 148.693 610.7 148.416 611.445 147.862C612.19 147.308 612.562 146.44 612.562 145.259V142.378H612.377C612.217 142.636 611.99 142.956 611.694 143.338C611.405 143.714 610.986 144.049 610.438 144.344C609.897 144.634 609.164 144.778 608.241 144.778C607.096 144.778 606.068 144.508 605.157 143.966C604.252 143.424 603.535 142.636 603.006 141.602C602.483 140.568 602.221 139.312 602.221 137.835C602.221 136.383 602.477 135.118 602.987 134.04C603.498 132.957 604.209 132.12 605.12 131.529C606.031 130.932 607.084 130.634 608.278 130.634C609.201 130.634 609.934 130.787 610.475 131.095C611.023 131.397 611.442 131.741 611.731 132.129C612.027 132.511 612.254 132.825 612.414 133.071H612.636V130.818H614.741V145.406C614.741 146.625 614.464 147.616 613.91 148.379C613.362 149.149 612.624 149.712 611.694 150.069C610.771 150.432 609.743 150.614 608.61 150.614ZM608.536 142.821C609.411 142.821 610.149 142.621 610.752 142.221C611.356 141.821 611.814 141.245 612.128 140.494C612.442 139.743 612.599 138.845 612.599 137.798C612.599 136.777 612.445 135.875 612.137 135.093C611.83 134.311 611.374 133.699 610.771 133.256C610.168 132.812 609.423 132.591 608.536 132.591C607.613 132.591 606.844 132.825 606.228 133.293C605.619 133.76 605.16 134.388 604.853 135.176C604.551 135.964 604.4 136.838 604.4 137.798C604.4 138.783 604.554 139.654 604.862 140.411C605.176 141.162 605.637 141.753 606.247 142.184C606.862 142.609 607.626 142.821 608.536 142.821ZM624.676 145.295C623.309 145.295 622.13 144.994 621.139 144.391C620.155 143.781 619.394 142.932 618.859 141.842C618.33 140.747 618.065 139.473 618.065 138.02C618.065 136.567 618.33 135.287 618.859 134.179C619.394 133.065 620.139 132.197 621.093 131.575C622.054 130.947 623.174 130.634 624.454 130.634C625.193 130.634 625.922 130.757 626.642 131.003C627.362 131.249 628.018 131.649 628.609 132.203C629.2 132.751 629.671 133.477 630.022 134.382C630.372 135.287 630.548 136.401 630.548 137.724V138.648H619.616V136.764H628.332C628.332 135.964 628.172 135.25 627.852 134.622C627.538 133.994 627.089 133.499 626.504 133.136C625.925 132.772 625.242 132.591 624.454 132.591C623.586 132.591 622.835 132.806 622.201 133.237C621.573 133.662 621.09 134.216 620.752 134.899C620.413 135.582 620.244 136.315 620.244 137.097V138.352C620.244 139.423 620.429 140.331 620.798 141.076C621.173 141.815 621.693 142.378 622.358 142.766C623.023 143.147 623.795 143.338 624.676 143.338C625.248 143.338 625.765 143.258 626.227 143.098C626.695 142.932 627.098 142.686 627.436 142.359C627.775 142.027 628.036 141.615 628.221 141.122L630.326 141.713C630.105 142.427 629.732 143.055 629.209 143.597C628.686 144.132 628.04 144.551 627.27 144.852C626.501 145.148 625.636 145.295 624.676 145.295ZM636.041 136.469V145H633.862V130.818H635.968V133.034H636.152C636.485 132.314 636.989 131.735 637.666 131.298C638.344 130.855 639.218 130.634 640.289 130.634C641.249 130.634 642.089 130.83 642.809 131.224C643.529 131.612 644.09 132.203 644.49 132.997C644.89 133.785 645.09 134.782 645.09 135.989V145H642.911V136.136C642.911 135.022 642.621 134.154 642.043 133.533C641.464 132.905 640.67 132.591 639.661 132.591C638.965 132.591 638.344 132.742 637.796 133.043C637.254 133.345 636.826 133.785 636.512 134.364C636.198 134.942 636.041 135.644 636.041 136.469ZM655.017 145.295C653.651 145.295 652.472 144.994 651.481 144.391C650.496 143.781 649.736 142.932 649.201 141.842C648.671 140.747 648.407 139.473 648.407 138.02C648.407 136.567 648.671 135.287 649.201 134.179C649.736 133.065 650.481 132.197 651.435 131.575C652.395 130.947 653.516 130.634 654.796 130.634C655.535 130.634 656.264 130.757 656.984 131.003C657.704 131.249 658.36 131.649 658.951 132.203C659.542 132.751 660.013 133.477 660.363 134.382C660.714 135.287 660.89 136.401 660.89 137.724V138.648H649.958V136.764H658.674C658.674 135.964 658.514 135.25 658.194 134.622C657.88 133.994 657.43 133.499 656.846 133.136C656.267 132.772 655.584 132.591 654.796 132.591C653.928 132.591 653.177 132.806 652.543 133.237C651.915 133.662 651.432 134.216 651.093 134.899C650.755 135.582 650.586 136.315 650.586 137.097V138.352C650.586 139.423 650.77 140.331 651.14 141.076C651.515 141.815 652.035 142.378 652.7 142.766C653.365 143.147 654.137 143.338 655.017 143.338C655.59 143.338 656.107 143.258 656.569 143.098C657.036 142.932 657.44 142.686 657.778 142.359C658.117 142.027 658.378 141.615 658.563 141.122L660.668 141.713C660.446 142.427 660.074 143.055 659.551 143.597C659.028 144.132 658.381 144.551 657.612 144.852C656.843 145.148 655.978 145.295 655.017 145.295ZM664.204 145V130.818H666.309V132.96H666.457C666.716 132.259 667.183 131.689 667.861 131.252C668.538 130.815 669.301 130.597 670.15 130.597C670.31 130.597 670.51 130.6 670.75 130.606C670.991 130.612 671.172 130.621 671.295 130.634V132.849C671.221 132.831 671.052 132.803 670.787 132.766C670.529 132.723 670.255 132.702 669.966 132.702C669.276 132.702 668.661 132.846 668.119 133.136C667.584 133.419 667.159 133.813 666.845 134.317C666.537 134.816 666.383 135.385 666.383 136.026V145H664.204ZM678.051 145.332C677.153 145.332 676.337 145.163 675.605 144.825C674.872 144.48 674.291 143.984 673.86 143.338C673.429 142.686 673.213 141.898 673.213 140.974C673.213 140.162 673.373 139.503 673.693 138.999C674.014 138.488 674.441 138.088 674.977 137.798C675.512 137.509 676.103 137.294 676.75 137.152C677.402 137.004 678.058 136.887 678.716 136.801C679.578 136.69 680.277 136.607 680.812 136.552C681.354 136.49 681.748 136.389 681.994 136.247C682.246 136.106 682.372 135.859 682.372 135.509V135.435C682.372 134.524 682.123 133.816 681.625 133.311C681.132 132.806 680.384 132.554 679.381 132.554C678.341 132.554 677.525 132.782 676.934 133.237C676.343 133.693 675.928 134.179 675.688 134.696L673.62 133.957C673.989 133.096 674.481 132.425 675.097 131.945C675.719 131.458 676.396 131.12 677.128 130.929C677.867 130.732 678.593 130.634 679.307 130.634C679.763 130.634 680.286 130.689 680.877 130.8C681.474 130.904 682.049 131.123 682.603 131.455C683.163 131.788 683.628 132.289 683.997 132.96C684.367 133.631 684.551 134.53 684.551 135.656V145H682.372V143.08H682.262C682.114 143.387 681.868 143.717 681.523 144.067C681.178 144.418 680.72 144.717 680.147 144.963C679.575 145.209 678.876 145.332 678.051 145.332ZM678.384 143.375C679.246 143.375 679.972 143.206 680.563 142.867C681.16 142.529 681.609 142.092 681.911 141.556C682.219 141.021 682.372 140.457 682.372 139.866V137.872C682.28 137.983 682.077 138.085 681.763 138.177C681.455 138.263 681.098 138.34 680.692 138.408C680.292 138.469 679.901 138.525 679.519 138.574C679.144 138.617 678.839 138.654 678.605 138.685C678.039 138.759 677.51 138.879 677.017 139.045C676.531 139.205 676.137 139.448 675.835 139.774C675.54 140.094 675.392 140.531 675.392 141.085C675.392 141.842 675.672 142.415 676.233 142.803C676.799 143.184 677.516 143.375 678.384 143.375ZM694.696 130.818V132.665H687.347V130.818H694.696ZM689.489 127.42H691.668V140.938C691.668 141.553 691.757 142.015 691.935 142.322C692.12 142.624 692.354 142.827 692.637 142.932C692.926 143.03 693.231 143.08 693.551 143.08C693.791 143.08 693.988 143.067 694.142 143.043C694.296 143.012 694.419 142.987 694.511 142.969L694.955 144.926C694.807 144.982 694.601 145.037 694.336 145.092C694.071 145.154 693.736 145.185 693.33 145.185C692.714 145.185 692.111 145.052 691.52 144.788C690.935 144.523 690.449 144.12 690.061 143.578C689.68 143.036 689.489 142.353 689.489 141.528V127.42ZM703.767 145.295C702.401 145.295 701.222 144.994 700.231 144.391C699.246 143.781 698.486 142.932 697.951 141.842C697.421 140.747 697.157 139.473 697.157 138.02C697.157 136.567 697.421 135.287 697.951 134.179C698.486 133.065 699.231 132.197 700.185 131.575C701.145 130.947 702.266 130.634 703.546 130.634C704.285 130.634 705.014 130.757 705.734 131.003C706.454 131.249 707.11 131.649 707.701 132.203C708.292 132.751 708.763 133.477 709.113 134.382C709.464 135.287 709.64 136.401 709.64 137.724V138.648H698.708V136.764H707.424C707.424 135.964 707.264 135.25 706.944 134.622C706.63 133.994 706.18 133.499 705.596 133.136C705.017 132.772 704.334 132.591 703.546 132.591C702.678 132.591 701.927 132.806 701.293 133.237C700.665 133.662 700.182 134.216 699.843 134.899C699.505 135.582 699.336 136.315 699.336 137.097V138.352C699.336 139.423 699.52 140.331 699.89 141.076C700.265 141.815 700.785 142.378 701.45 142.766C702.115 143.147 702.887 143.338 703.767 143.338C704.34 143.338 704.857 143.258 705.319 143.098C705.786 142.932 706.19 142.686 706.528 142.359C706.867 142.027 707.128 141.615 707.313 141.122L709.418 141.713C709.196 142.427 708.824 143.055 708.301 143.597C707.778 144.132 707.131 144.551 706.362 144.852C705.593 145.148 704.728 145.295 703.767 145.295ZM718.309 145.295C717.128 145.295 716.084 144.997 715.179 144.4C714.275 143.797 713.567 142.947 713.056 141.852C712.545 140.75 712.29 139.448 712.29 137.946C712.29 136.456 712.545 135.164 713.056 134.068C713.567 132.973 714.278 132.126 715.189 131.529C716.1 130.932 717.152 130.634 718.346 130.634C719.27 130.634 719.999 130.787 720.535 131.095C721.076 131.397 721.489 131.741 721.772 132.129C722.061 132.511 722.286 132.825 722.446 133.071H722.63V126.091H724.809V145H722.704V142.821H722.446C722.286 143.08 722.058 143.406 721.763 143.8C721.467 144.187 721.045 144.535 720.498 144.843C719.95 145.145 719.22 145.295 718.309 145.295ZM718.605 143.338C719.479 143.338 720.218 143.11 720.821 142.655C721.424 142.193 721.883 141.556 722.196 140.744C722.51 139.925 722.667 138.98 722.667 137.909C722.667 136.85 722.513 135.924 722.206 135.13C721.898 134.33 721.442 133.708 720.839 133.265C720.236 132.816 719.491 132.591 718.605 132.591C717.682 132.591 716.912 132.828 716.297 133.302C715.687 133.77 715.229 134.407 714.921 135.213C714.619 136.013 714.468 136.912 714.468 137.909C714.468 138.919 714.622 139.836 714.93 140.661C715.244 141.479 715.706 142.132 716.315 142.618C716.931 143.098 717.694 143.338 718.605 143.338Z" fill="black"/>
<path d="M209.19 1013V986.818H224.991V989.631H212.36V998.477H224.173V1001.29H212.36V1010.19H225.196V1013H209.19ZM233.314 1001.19V1013H230.297V993.364H233.211V996.432H233.467C233.927 995.435 234.626 994.634 235.564 994.028C236.501 993.415 237.711 993.108 239.194 993.108C240.524 993.108 241.687 993.381 242.684 993.926C243.681 994.463 244.457 995.281 245.011 996.381C245.565 997.472 245.842 998.852 245.842 1000.52V1013H242.825V1000.73C242.825 999.185 242.424 997.983 241.623 997.122C240.822 996.253 239.723 995.818 238.325 995.818C237.362 995.818 236.501 996.027 235.743 996.445C234.993 996.862 234.4 997.472 233.966 998.273C233.531 999.074 233.314 1000.05 233.314 1001.19ZM259.332 1013.41C257.491 1013.41 255.906 1012.97 254.577 1012.11C253.247 1011.24 252.224 1010.04 251.509 1008.51C250.793 1006.99 250.435 1005.24 250.435 1003.28C250.435 1001.29 250.801 999.53 251.534 998.004C252.276 996.47 253.307 995.273 254.628 994.412C255.957 993.543 257.509 993.108 259.281 993.108C260.662 993.108 261.906 993.364 263.014 993.875C264.122 994.386 265.03 995.102 265.737 996.023C266.445 996.943 266.884 998.017 267.054 999.244H264.037C263.807 998.349 263.295 997.557 262.503 996.866C261.719 996.168 260.662 995.818 259.332 995.818C258.156 995.818 257.125 996.125 256.239 996.739C255.361 997.344 254.675 998.2 254.18 999.308C253.695 1000.41 253.452 1001.7 253.452 1003.18C253.452 1004.7 253.69 1006.02 254.168 1007.14C254.653 1008.27 255.335 1009.14 256.213 1009.77C257.099 1010.39 258.139 1010.7 259.332 1010.7C260.116 1010.7 260.828 1010.56 261.467 1010.29C262.107 1010.02 262.648 1009.62 263.091 1009.11C263.534 1008.6 263.849 1007.99 264.037 1007.27H267.054C266.884 1008.43 266.462 1009.48 265.788 1010.4C265.124 1011.33 264.241 1012.06 263.142 1012.6C262.051 1013.14 260.781 1013.41 259.332 1013.41ZM279.442 1013.41C277.669 1013.41 276.114 1012.99 274.776 1012.14C273.446 1011.3 272.406 1010.12 271.656 1008.6C270.915 1007.09 270.544 1005.31 270.544 1003.28C270.544 1001.24 270.915 999.453 271.656 997.928C272.406 996.402 273.446 995.217 274.776 994.374C276.114 993.53 277.669 993.108 279.442 993.108C281.214 993.108 282.766 993.53 284.095 994.374C285.433 995.217 286.473 996.402 287.214 997.928C287.964 999.453 288.339 1001.24 288.339 1003.28C288.339 1005.31 287.964 1007.09 287.214 1008.6C286.473 1010.12 285.433 1011.3 284.095 1012.14C282.766 1012.99 281.214 1013.41 279.442 1013.41ZM279.442 1010.7C280.788 1010.7 281.896 1010.35 282.766 1009.66C283.635 1008.97 284.278 1008.07 284.696 1006.94C285.114 1005.82 285.322 1004.6 285.322 1003.28C285.322 1001.97 285.114 1000.75 284.696 999.615C284.278 998.482 283.635 997.565 282.766 996.866C281.896 996.168 280.788 995.818 279.442 995.818C278.095 995.818 276.987 996.168 276.118 996.866C275.249 997.565 274.605 998.482 274.188 999.615C273.77 1000.75 273.561 1001.97 273.561 1003.28C273.561 1004.6 273.77 1005.82 274.188 1006.94C274.605 1008.07 275.249 1008.97 276.118 1009.66C276.987 1010.35 278.095 1010.7 279.442 1010.7ZM300.36 1013.41C298.723 1013.41 297.279 1013 296.026 1012.17C294.773 1011.33 293.793 1010.16 293.086 1008.64C292.378 1007.12 292.025 1005.31 292.025 1003.23C292.025 1001.17 292.378 999.381 293.086 997.864C293.793 996.347 294.777 995.175 296.039 994.348C297.3 993.521 298.757 993.108 300.411 993.108C301.689 993.108 302.699 993.321 303.441 993.747C304.191 994.165 304.762 994.642 305.154 995.179C305.554 995.707 305.865 996.142 306.087 996.483H306.343V986.818H309.36V1013H306.445V1009.98H306.087C305.865 1010.34 305.55 1010.79 305.141 1011.34C304.732 1011.87 304.148 1012.36 303.39 1012.78C302.631 1013.2 301.621 1013.41 300.36 1013.41ZM300.769 1010.7C301.979 1010.7 303.002 1010.38 303.837 1009.75C304.672 1009.11 305.307 1008.23 305.742 1007.11C306.176 1005.97 306.394 1004.66 306.394 1003.18C306.394 1001.72 306.181 1000.43 305.755 999.334C305.328 998.226 304.698 997.365 303.863 996.751C303.027 996.129 301.996 995.818 300.769 995.818C299.49 995.818 298.425 996.146 297.573 996.803C296.729 997.45 296.094 998.332 295.668 999.449C295.25 1000.56 295.042 1001.8 295.042 1003.18C295.042 1004.58 295.255 1005.85 295.681 1006.99C296.115 1008.12 296.755 1009.03 297.598 1009.7C298.451 1010.37 299.507 1010.7 300.769 1010.7ZM323.537 1013.41C321.645 1013.41 320.013 1012.99 318.641 1012.16C317.277 1011.31 316.225 1010.14 315.483 1008.63C314.75 1007.11 314.384 1005.35 314.384 1003.34C314.384 1001.32 314.75 999.551 315.483 998.017C316.225 996.474 317.256 995.273 318.577 994.412C319.907 993.543 321.458 993.108 323.23 993.108C324.253 993.108 325.263 993.278 326.26 993.619C327.257 993.96 328.165 994.514 328.983 995.281C329.801 996.04 330.453 997.045 330.939 998.298C331.425 999.551 331.668 1001.09 331.668 1002.93V1004.2H316.532V1001.6H328.6C328.6 1000.49 328.378 999.5 327.935 998.631C327.5 997.761 326.878 997.075 326.069 996.572C325.267 996.07 324.321 995.818 323.23 995.818C322.029 995.818 320.989 996.116 320.111 996.713C319.242 997.301 318.573 998.068 318.104 999.014C317.635 999.96 317.401 1000.97 317.401 1002.06V1003.8C317.401 1005.28 317.657 1006.54 318.168 1007.57C318.688 1008.59 319.408 1009.37 320.328 1009.91C321.249 1010.43 322.319 1010.7 323.537 1010.7C324.33 1010.7 325.046 1010.59 325.685 1010.37C326.333 1010.14 326.891 1009.8 327.36 1009.34C327.828 1008.88 328.191 1008.31 328.446 1007.63L331.361 1008.45C331.054 1009.44 330.539 1010.31 329.814 1011.06C329.09 1011.8 328.195 1012.38 327.13 1012.8C326.064 1013.2 324.867 1013.41 323.537 1013.41ZM336.257 1013V993.364H339.172V996.33H339.377C339.735 995.358 340.382 994.57 341.32 993.964C342.257 993.359 343.314 993.057 344.49 993.057C344.712 993.057 344.989 993.061 345.321 993.07C345.654 993.078 345.905 993.091 346.076 993.108V996.176C345.973 996.151 345.739 996.112 345.373 996.061C345.015 996.001 344.635 995.972 344.235 995.972C343.28 995.972 342.428 996.172 341.678 996.572C340.936 996.964 340.348 997.51 339.914 998.209C339.488 998.899 339.275 999.687 339.275 1000.57V1013H336.257ZM359.461 1000.37V1003.18H348.006V1000.37H359.461ZM373.258 1013H365.178V986.818H373.616C376.156 986.818 378.329 987.342 380.136 988.391C381.942 989.43 383.327 990.926 384.29 992.878C385.254 994.821 385.735 997.148 385.735 999.858C385.735 1002.59 385.249 1004.93 384.278 1006.9C383.306 1008.86 381.891 1010.37 380.033 1011.43C378.175 1012.48 375.917 1013 373.258 1013ZM368.349 1010.19H373.053C375.218 1010.19 377.012 1009.77 378.435 1008.93C379.859 1008.1 380.92 1006.91 381.619 1005.37C382.317 1003.83 382.667 1001.99 382.667 999.858C382.667 997.744 382.322 995.925 381.631 994.399C380.941 992.865 379.91 991.689 378.538 990.871C377.165 990.044 375.457 989.631 373.411 989.631H368.349V1010.19ZM398.877 1013.41C396.985 1013.41 395.353 1012.99 393.981 1012.16C392.617 1011.31 391.565 1010.14 390.823 1008.63C390.09 1007.11 389.724 1005.35 389.724 1003.34C389.724 1001.32 390.09 999.551 390.823 998.017C391.565 996.474 392.596 995.273 393.917 994.412C395.246 993.543 396.798 993.108 398.57 993.108C399.593 993.108 400.603 993.278 401.6 993.619C402.597 993.96 403.505 994.514 404.323 995.281C405.141 996.04 405.793 997.045 406.279 998.298C406.765 999.551 407.008 1001.09 407.008 1002.93V1004.2H391.871V1001.6H403.94C403.94 1000.49 403.718 999.5 403.275 998.631C402.84 997.761 402.218 997.075 401.408 996.572C400.607 996.07 399.661 995.818 398.57 995.818C397.369 995.818 396.329 996.116 395.451 996.713C394.582 997.301 393.913 998.068 393.444 999.014C392.975 999.96 392.741 1000.97 392.741 1002.06V1003.8C392.741 1005.28 392.996 1006.54 393.508 1007.57C394.028 1008.59 394.748 1009.37 395.668 1009.91C396.589 1010.43 397.658 1010.7 398.877 1010.7C399.67 1010.7 400.386 1010.59 401.025 1010.37C401.673 1010.14 402.231 1009.8 402.7 1009.34C403.168 1008.88 403.531 1008.31 403.786 1007.63L406.701 1008.45C406.394 1009.44 405.879 1010.31 405.154 1011.06C404.43 1011.8 403.535 1012.38 402.469 1012.8C401.404 1013.2 400.207 1013.41 398.877 1013.41ZM419.575 1013.41C417.734 1013.41 416.148 1012.97 414.819 1012.11C413.489 1011.24 412.467 1010.04 411.751 1008.51C411.035 1006.99 410.677 1005.24 410.677 1003.28C410.677 1001.29 411.043 999.53 411.776 998.004C412.518 996.47 413.549 995.273 414.87 994.412C416.2 993.543 417.751 993.108 419.523 993.108C420.904 993.108 422.148 993.364 423.256 993.875C424.364 994.386 425.272 995.102 425.979 996.023C426.687 996.943 427.126 998.017 427.296 999.244H424.279C424.049 998.349 423.538 997.557 422.745 996.866C421.961 996.168 420.904 995.818 419.575 995.818C418.398 995.818 417.367 996.125 416.481 996.739C415.603 997.344 414.917 998.2 414.423 999.308C413.937 1000.41 413.694 1001.7 413.694 1003.18C413.694 1004.7 413.933 1006.02 414.41 1007.14C414.896 1008.27 415.577 1009.14 416.455 1009.77C417.342 1010.39 418.381 1010.7 419.575 1010.7C420.359 1010.7 421.07 1010.56 421.71 1010.29C422.349 1010.02 422.89 1009.62 423.333 1009.11C423.776 1008.6 424.092 1007.99 424.279 1007.27H427.296C427.126 1008.43 426.704 1009.48 426.031 1010.4C425.366 1011.33 424.484 1012.06 423.384 1012.6C422.293 1013.14 421.023 1013.41 419.575 1013.41ZM439.684 1013.41C437.911 1013.41 436.356 1012.99 435.018 1012.14C433.688 1011.3 432.648 1010.12 431.898 1008.6C431.157 1007.09 430.786 1005.31 430.786 1003.28C430.786 1001.24 431.157 999.453 431.898 997.928C432.648 996.402 433.688 995.217 435.018 994.374C436.356 993.53 437.911 993.108 439.684 993.108C441.457 993.108 443.008 993.53 444.337 994.374C445.675 995.217 446.715 996.402 447.457 997.928C448.207 999.453 448.582 1001.24 448.582 1003.28C448.582 1005.31 448.207 1007.09 447.457 1008.6C446.715 1010.12 445.675 1011.3 444.337 1012.14C443.008 1012.99 441.457 1013.41 439.684 1013.41ZM439.684 1010.7C441.031 1010.7 442.138 1010.35 443.008 1009.66C443.877 1008.97 444.521 1008.07 444.938 1006.94C445.356 1005.82 445.565 1004.6 445.565 1003.28C445.565 1001.97 445.356 1000.75 444.938 999.615C444.521 998.482 443.877 997.565 443.008 996.866C442.138 996.168 441.031 995.818 439.684 995.818C438.337 995.818 437.229 996.168 436.36 996.866C435.491 997.565 434.847 998.482 434.43 999.615C434.012 1000.75 433.803 1001.97 433.803 1003.28C433.803 1004.6 434.012 1005.82 434.43 1006.94C434.847 1008.07 435.491 1008.97 436.36 1009.66C437.229 1010.35 438.337 1010.7 439.684 1010.7ZM460.602 1013.41C458.966 1013.41 457.521 1013 456.268 1012.17C455.015 1011.33 454.035 1010.16 453.328 1008.64C452.62 1007.12 452.267 1005.31 452.267 1003.23C452.267 1001.17 452.62 999.381 453.328 997.864C454.035 996.347 455.02 995.175 456.281 994.348C457.542 993.521 459 993.108 460.653 993.108C461.931 993.108 462.941 993.321 463.683 993.747C464.433 994.165 465.004 994.642 465.396 995.179C465.797 995.707 466.108 996.142 466.329 996.483H466.585V986.818H469.602V1013H466.687V1009.98H466.329C466.108 1010.34 465.792 1010.79 465.383 1011.34C464.974 1011.87 464.39 1012.36 463.632 1012.78C462.873 1013.2 461.863 1013.41 460.602 1013.41ZM461.011 1010.7C462.221 1010.7 463.244 1010.38 464.079 1009.75C464.914 1009.11 465.549 1008.23 465.984 1007.11C466.419 1005.97 466.636 1004.66 466.636 1003.18C466.636 1001.72 466.423 1000.43 465.997 999.334C465.571 998.226 464.94 997.365 464.105 996.751C463.27 996.129 462.238 995.818 461.011 995.818C459.733 995.818 458.667 996.146 457.815 996.803C456.971 997.45 456.336 998.332 455.91 999.449C455.493 1000.56 455.284 1001.8 455.284 1003.18C455.284 1004.58 455.497 1005.85 455.923 1006.99C456.358 1008.12 456.997 1009.03 457.841 1009.7C458.693 1010.37 459.75 1010.7 461.011 1010.7ZM483.779 1013.41C481.887 1013.41 480.255 1012.99 478.883 1012.16C477.52 1011.31 476.467 1010.14 475.725 1008.63C474.993 1007.11 474.626 1005.35 474.626 1003.34C474.626 1001.32 474.993 999.551 475.725 998.017C476.467 996.474 477.498 995.273 478.819 994.412C480.149 993.543 481.7 993.108 483.473 993.108C484.495 993.108 485.505 993.278 486.502 993.619C487.5 993.96 488.407 994.514 489.225 995.281C490.044 996.04 490.696 997.045 491.181 998.298C491.667 999.551 491.91 1001.09 491.91 1002.93V1004.2H476.774V1001.6H488.842C488.842 1000.49 488.62 999.5 488.177 998.631C487.743 997.761 487.12 997.075 486.311 996.572C485.51 996.07 484.564 995.818 483.473 995.818C482.271 995.818 481.231 996.116 480.353 996.713C479.484 997.301 478.815 998.068 478.346 999.014C477.877 999.96 477.643 1000.97 477.643 1002.06V1003.8C477.643 1005.28 477.899 1006.54 478.41 1007.57C478.93 1008.59 479.65 1009.37 480.571 1009.91C481.491 1010.43 482.561 1010.7 483.779 1010.7C484.572 1010.7 485.288 1010.59 485.927 1010.37C486.575 1010.14 487.133 1009.8 487.602 1009.34C488.071 1008.88 488.433 1008.31 488.689 1007.63L491.603 1008.45C491.297 1009.44 490.781 1010.31 490.056 1011.06C489.332 1011.8 488.437 1012.38 487.372 1012.8C486.306 1013.2 485.109 1013.41 483.779 1013.41ZM496.5 1013V993.364H499.414V996.33H499.619C499.977 995.358 500.625 994.57 501.562 993.964C502.5 993.359 503.556 993.057 504.733 993.057C504.954 993.057 505.231 993.061 505.564 993.07C505.896 993.078 506.147 993.091 506.318 993.108V996.176C506.216 996.151 505.981 996.112 505.615 996.061C505.257 996.001 504.877 995.972 504.477 995.972C503.522 995.972 502.67 996.172 501.92 996.572C501.179 996.964 500.591 997.51 500.156 998.209C499.73 998.899 499.517 999.687 499.517 1000.57V1013H496.5ZM521.502 1013H518.178L527.792 986.818H531.065L540.678 1013H537.354L529.531 990.96H529.326L521.502 1013ZM522.729 1002.77H536.127V1005.59H522.729V1002.77ZM544.347 1013V993.364H547.262V996.33H547.467C547.825 995.358 548.472 994.57 549.41 993.964C550.347 993.359 551.404 993.057 552.58 993.057C552.802 993.057 553.079 993.061 553.411 993.07C553.744 993.078 553.995 993.091 554.165 993.108V996.176C554.063 996.151 553.829 996.112 553.462 996.061C553.104 996.001 552.725 995.972 552.325 995.972C551.37 995.972 550.518 996.172 549.768 996.572C549.026 996.964 548.438 997.51 548.004 998.209C547.577 998.899 547.364 999.687 547.364 1000.57V1013H544.347ZM565.121 1013.41C563.281 1013.41 561.695 1012.97 560.366 1012.11C559.036 1011.24 558.013 1010.04 557.298 1008.51C556.582 1006.99 556.224 1005.24 556.224 1003.28C556.224 1001.29 556.59 999.53 557.323 998.004C558.065 996.47 559.096 995.273 560.417 994.412C561.746 993.543 563.298 993.108 565.07 993.108C566.451 993.108 567.695 993.364 568.803 993.875C569.911 994.386 570.819 995.102 571.526 996.023C572.234 996.943 572.673 998.017 572.843 999.244H569.826C569.596 998.349 569.085 997.557 568.292 996.866C567.508 996.168 566.451 995.818 565.121 995.818C563.945 995.818 562.914 996.125 562.028 996.739C561.15 997.344 560.464 998.2 559.969 999.308C559.484 1000.41 559.241 1001.7 559.241 1003.18C559.241 1004.7 559.479 1006.02 559.957 1007.14C560.442 1008.27 561.124 1009.14 562.002 1009.77C562.888 1010.39 563.928 1010.7 565.121 1010.7C565.906 1010.7 566.617 1010.56 567.256 1010.29C567.896 1010.02 568.437 1009.62 568.88 1009.11C569.323 1008.6 569.638 1007.99 569.826 1007.27H572.843C572.673 1008.43 572.251 1009.48 571.577 1010.4C570.913 1011.33 570.031 1012.06 568.931 1012.6C567.84 1013.14 566.57 1013.41 565.121 1013.41ZM580.271 1001.19V1013H577.254V986.818H580.271V996.432H580.526C580.987 995.418 581.677 994.612 582.597 994.016C583.526 993.411 584.762 993.108 586.305 993.108C587.643 993.108 588.815 993.376 589.82 993.913C590.826 994.442 591.606 995.256 592.16 996.355C592.722 997.446 593.004 998.835 593.004 1000.52V1013H589.987V1000.73C589.987 999.168 589.582 997.962 588.772 997.109C587.971 996.249 586.859 995.818 585.435 995.818C584.447 995.818 583.56 996.027 582.776 996.445C582.001 996.862 581.387 997.472 580.935 998.273C580.492 999.074 580.271 1000.05 580.271 1001.19ZM598.523 1013V993.364H601.54V1013H598.523ZM600.057 990.091C599.469 990.091 598.962 989.891 598.536 989.49C598.118 989.089 597.909 988.608 597.909 988.045C597.909 987.483 598.118 987.001 598.536 986.601C598.962 986.2 599.469 986 600.057 986C600.645 986 601.148 986.2 601.566 986.601C601.992 987.001 602.205 987.483 602.205 988.045C602.205 988.608 601.992 989.089 601.566 989.49C601.148 989.891 600.645 990.091 600.057 990.091ZM615.606 993.364V995.92H605.43V993.364H615.606ZM608.396 988.659H611.413V1007.38C611.413 1008.23 611.536 1008.87 611.783 1009.29C612.039 1009.71 612.363 1009.99 612.755 1010.14C613.156 1010.27 613.577 1010.34 614.021 1010.34C614.353 1010.34 614.626 1010.32 614.839 1010.29C615.052 1010.25 615.222 1010.21 615.35 1010.19L615.964 1012.9C615.759 1012.97 615.474 1013.05 615.107 1013.13C614.741 1013.21 614.276 1013.26 613.714 1013.26C612.862 1013.26 612.026 1013.07 611.208 1012.71C610.398 1012.34 609.725 1011.78 609.188 1011.03C608.66 1010.28 608.396 1009.34 608.396 1008.19V988.659ZM628.166 1013.41C626.274 1013.41 624.642 1012.99 623.27 1012.16C621.906 1011.31 620.854 1010.14 620.112 1008.63C619.379 1007.11 619.013 1005.35 619.013 1003.34C619.013 1001.32 619.379 999.551 620.112 998.017C620.854 996.474 621.885 995.273 623.206 994.412C624.536 993.543 626.087 993.108 627.859 993.108C628.882 993.108 629.892 993.278 630.889 993.619C631.886 993.96 632.794 994.514 633.612 995.281C634.43 996.04 635.082 997.045 635.568 998.298C636.054 999.551 636.297 1001.09 636.297 1002.93V1004.2H621.161V1001.6H633.229C633.229 1000.49 633.007 999.5 632.564 998.631C632.129 997.761 631.507 997.075 630.697 996.572C629.896 996.07 628.95 995.818 627.859 995.818C626.658 995.818 625.618 996.116 624.74 996.713C623.871 997.301 623.202 998.068 622.733 999.014C622.264 999.96 622.03 1000.97 622.03 1002.06V1003.8C622.03 1005.28 622.286 1006.54 622.797 1007.57C623.317 1008.59 624.037 1009.37 624.957 1009.91C625.878 1010.43 626.947 1010.7 628.166 1010.7C628.959 1010.7 629.675 1010.59 630.314 1010.37C630.962 1010.14 631.52 1009.8 631.989 1009.34C632.457 1008.88 632.82 1008.31 633.075 1007.63L635.99 1008.45C635.683 1009.44 635.168 1010.31 634.443 1011.06C633.719 1011.8 632.824 1012.38 631.759 1012.8C630.693 1013.2 629.496 1013.41 628.166 1013.41ZM648.864 1013.41C647.023 1013.41 645.438 1012.97 644.108 1012.11C642.778 1011.24 641.756 1010.04 641.04 1008.51C640.324 1006.99 639.966 1005.24 639.966 1003.28C639.966 1001.29 640.332 999.53 641.065 998.004C641.807 996.47 642.838 995.273 644.159 994.412C645.489 993.543 647.04 993.108 648.812 993.108C650.193 993.108 651.438 993.364 652.545 993.875C653.653 994.386 654.561 995.102 655.268 996.023C655.976 996.943 656.415 998.017 656.585 999.244H653.568C653.338 998.349 652.827 997.557 652.034 996.866C651.25 996.168 650.193 995.818 648.864 995.818C647.688 995.818 646.656 996.125 645.77 996.739C644.892 997.344 644.206 998.2 643.712 999.308C643.226 1000.41 642.983 1001.7 642.983 1003.18C642.983 1004.7 643.222 1006.02 643.699 1007.14C644.185 1008.27 644.866 1009.14 645.744 1009.77C646.631 1010.39 647.67 1010.7 648.864 1010.7C649.648 1010.7 650.359 1010.56 650.999 1010.29C651.638 1010.02 652.179 1009.62 652.622 1009.11C653.065 1008.6 653.381 1007.99 653.568 1007.27H656.585C656.415 1008.43 655.993 1009.48 655.32 1010.4C654.655 1011.33 653.773 1012.06 652.673 1012.6C651.582 1013.14 650.313 1013.41 648.864 1013.41ZM669.536 993.364V995.92H659.359V993.364H669.536ZM662.325 988.659H665.342V1007.38C665.342 1008.23 665.466 1008.87 665.713 1009.29C665.969 1009.71 666.293 1009.99 666.685 1010.14C667.085 1010.27 667.507 1010.34 667.95 1010.34C668.283 1010.34 668.555 1010.32 668.768 1010.29C668.982 1010.25 669.152 1010.21 669.28 1010.19L669.893 1012.9C669.689 1012.97 669.403 1013.05 669.037 1013.13C668.67 1013.21 668.206 1013.26 667.643 1013.26C666.791 1013.26 665.956 1013.07 665.138 1012.71C664.328 1012.34 663.655 1011.78 663.118 1011.03C662.589 1010.28 662.325 1009.34 662.325 1008.19V988.659ZM686.449 1004.97V993.364H689.466V1013H686.449V1009.68H686.244C685.784 1010.67 685.068 1011.52 684.097 1012.22C683.125 1012.91 681.898 1013.26 680.415 1013.26C679.188 1013.26 678.097 1012.99 677.142 1012.45C676.188 1011.9 675.438 1011.09 674.892 1010C674.347 1008.9 674.074 1007.51 674.074 1005.84V993.364H677.091V1005.64C677.091 1007.07 677.491 1008.21 678.293 1009.06C679.102 1009.91 680.134 1010.34 681.386 1010.34C682.136 1010.34 682.899 1010.15 683.675 1009.77C684.459 1009.38 685.115 1008.79 685.643 1008C686.18 1007.21 686.449 1006.2 686.449 1004.97ZM694.992 1013V993.364H697.907V996.33H698.111C698.469 995.358 699.117 994.57 700.054 993.964C700.992 993.359 702.049 993.057 703.225 993.057C703.446 993.057 703.723 993.061 704.056 993.07C704.388 993.078 704.64 993.091 704.81 993.108V996.176C704.708 996.151 704.473 996.112 704.107 996.061C703.749 996.001 703.37 995.972 702.969 995.972C702.015 995.972 701.162 996.172 700.412 996.572C699.671 996.964 699.083 997.51 698.648 998.209C698.222 998.899 698.009 999.687 698.009 1000.57V1013H694.992ZM716.022 1013.41C714.13 1013.41 712.498 1012.99 711.125 1012.16C709.762 1011.31 708.709 1010.14 707.968 1008.63C707.235 1007.11 706.868 1005.35 706.868 1003.34C706.868 1001.32 707.235 999.551 707.968 998.017C708.709 996.474 709.74 995.273 711.061 994.412C712.391 993.543 713.942 993.108 715.715 993.108C716.738 993.108 717.748 993.278 718.745 993.619C719.742 993.96 720.65 994.514 721.468 995.281C722.286 996.04 722.938 997.045 723.424 998.298C723.909 999.551 724.152 1001.09 724.152 1002.93V1004.2H709.016V1001.6H721.084C721.084 1000.49 720.863 999.5 720.419 998.631C719.985 997.761 719.363 997.075 718.553 996.572C717.752 996.07 716.806 995.818 715.715 995.818C714.513 995.818 713.473 996.116 712.596 996.713C711.726 997.301 711.057 998.068 710.588 999.014C710.12 999.96 709.885 1000.97 709.885 1002.06V1003.8C709.885 1005.28 710.141 1006.54 710.652 1007.57C711.172 1008.59 711.892 1009.37 712.813 1009.91C713.733 1010.43 714.803 1010.7 716.022 1010.7C716.814 1010.7 717.53 1010.59 718.169 1010.37C718.817 1010.14 719.375 1009.8 719.844 1009.34C720.313 1008.88 720.675 1008.31 720.931 1007.63L723.846 1008.45C723.539 1009.44 723.023 1010.31 722.299 1011.06C721.574 1011.8 720.679 1012.38 719.614 1012.8C718.549 1013.2 717.351 1013.41 716.022 1013.41Z" fill="black"/>
<path d="M206.02 1020.16H725.993V1022.61H206.02V1020.16Z" fill="black"/>
</svg>
